<?xml version="1.0" standalone="no"?>
<!DOCTYPE svg PUBLIC "-//W3C//DTD SVG 20010904//EN"
 "http://www.w3.org/TR/2001/REC-SVG-20010904/DTD/svg10.dtd">
<svg version="1.0" xmlns="http://www.w3.org/2000/svg"
 width="353.000000pt" height="206.000000pt" viewBox="0 0 353.000000 206.000000"
 preserveAspectRatio="xMidYMid meet">

<g transform="translate(0.000000,206.000000) scale(0.100000,-0.100000)"
fill="#622A0F" stroke="none">
<path d="M0 1030 l0 -1030 1765 0 1765 0 0 1030 0 1030 -1765 0 -1765 0 0
-1030z m1186 731 c97 -44 158 -142 157 -251 0 -80 -25 -140 -82 -194 -30 -30
-38 -43 -30 -52 7 -8 8 -32 4 -63 -12 -85 15 -154 86 -222 32 -31 59 -61 59
-65 0 -5 -19 -25 -42 -44 -30 -27 -39 -40 -33 -51 14 -21 15 -79 3 -121 -9
-30 -8 -42 6 -62 21 -33 20 -72 -2 -94 -11 -11 -47 -23 -92 -31 -96 -15 -170
-52 -232 -114 -45 -45 -108 -152 -108 -184 0 -7 -6 -13 -13 -13 -9 0 -12 18
-9 71 3 39 0 70 -4 68 -5 -2 -33 -17 -61 -32 -104 -54 -225 -70 -308 -42 -38
13 -38 14 -5 7 19 -4 72 -6 117 -6 68 1 92 6 145 31 35 17 74 39 87 50 l24 20
-22 84 c-34 132 -47 281 -33 396 23 194 71 330 156 443 65 86 86 134 86 198 0
138 -104 242 -243 242 -69 0 -120 -19 -165 -63 -56 -53 -76 -102 -77 -183 0
-61 4 -77 30 -119 30 -47 90 -98 131 -109 18 -6 23 0 34 39 16 55 8 125 -19
185 -36 79 -21 153 41 205 l33 28 5 -61 c4 -42 12 -69 28 -89 50 -63 74 -104
82 -140 5 -20 7 -39 5 -42 -5 -4 -10 10 -20 52 -3 16 -23 47 -44 70 -57 64
-71 88 -71 126 l0 35 -21 -21 c-32 -32 -36 -101 -10 -163 48 -113 34 -211 -44
-298 -61 -68 -127 -95 -214 -90 -106 6 -184 57 -233 151 -31 59 -31 175 0 233
52 101 133 154 234 154 55 0 60 2 96 42 69 76 180 107 281 77 30 -9 43 -7 81
10 60 27 168 28 226 2z m597 -282 c47 -13 106 -63 123 -106 38 -91 -10 -209
-99 -242 -16 -6 -70 -10 -120 -10 -51 1 -82 4 -69 6 22 4 22 6 22 174 0 162
-1 169 -20 169 -11 0 -20 5 -20 10 0 13 134 13 183 -1z m212 -114 c23 -22 25
-32 25 -120 0 -104 12 -125 50 -90 18 16 20 31 20 127 l0 109 38 -3 37 -3 2
-115 c1 -63 2 -121 3 -129 0 -11 5 -10 20 4 18 16 20 31 20 122 0 62 -4 103
-10 103 -5 0 -10 4 -10 8 0 5 40 8 89 7 72 -2 95 -7 119 -24 39 -28 56 -71 49
-128 -7 -64 -58 -113 -116 -113 l-40 0 -3 -47 c-3 -48 -3 -48 -40 -51 l-38 -3
0 55 0 55 -35 -6 c-23 -4 -43 0 -59 10 -20 14 -26 14 -42 2 -25 -19 -74 -19
-101 0 -26 18 -31 46 -35 168 -3 78 -1 87 15 87 10 0 29 -11 42 -25z m735
-106 c0 -127 0 -129 20 -119 11 6 20 17 20 25 0 7 5 17 10 20 18 11 11 -24 -8
-43 -15 -15 -36 -19 -115 -20 -83 -1 -100 2 -129 21 -61 42 -73 132 -26 192
30 39 70 52 155 53 l73 1 0 -130z m-1810 93 c0 -10 -6 -27 -14 -38 -13 -17
-13 -15 -3 19 13 41 17 46 17 19z m840 -362 c0 -5 -11 -10 -25 -10 -24 0 -25
-3 -25 -60 0 -33 3 -60 8 -60 14 1 87 109 84 124 -2 12 6 16 38 16 22 0 40 -4
40 -10 0 -5 -10 -10 -22 -10 -14 0 -33 -13 -49 -33 -41 -52 -42 -55 -10 -71
16 -9 33 -28 39 -43 33 -95 76 -183 84 -175 6 6 4 22 -7 43 -57 108 61 235
170 183 37 -17 51 -36 65 -85 l8 -28 -86 -3 -87 -3 -3 -41 c-4 -59 22 -89 70
-80 20 3 48 18 63 32 29 27 47 26 25 -1 -36 -44 -129 -59 -174 -30 -21 14 -24
14 -36 0 -17 -20 -73 -19 -92 3 -9 9 -33 59 -54 110 -20 50 -41 92 -45 92 -20
0 -30 -46 -27 -122 3 -78 4 -83 28 -89 14 -4 -12 -7 -60 -7 -47 1 -75 3 -62 5
22 4 22 6 22 174 0 162 -1 169 -20 169 -11 0 -20 5 -20 10 0 6 33 10 80 10 47
0 80 -4 80 -10z m966 -11 c8 -6 16 -26 20 -45 3 -19 12 -34 20 -34 8 0 14 -4
14 -10 0 -5 -7 -10 -15 -10 -13 0 -15 -20 -15 -120 0 -112 1 -120 18 -111 14
8 17 24 17 90 0 77 1 81 34 115 60 62 153 55 205 -17 45 -61 16 -168 -54 -197
-38 -16 -115 -8 -140 15 -17 16 -20 15 -39 -4 -25 -25 -68 -27 -98 -6 -17 12
-23 12 -32 1 -8 -10 -40 -14 -113 -14 l-101 -1 -39 38 c-33 34 -38 45 -38 85
0 100 45 138 167 143 l83 3 0 -131 0 -131 23 14 c20 14 22 24 25 122 2 79 0
106 -10 106 -9 0 -9 3 0 12 14 14 16 88 2 88 -5 0 -10 5 -10 11 0 14 56 5 76
-12z m-505 -98 c24 -19 25 -19 48 0 28 23 74 25 96 3 18 -19 16 -33 -7 -48
-21 -13 -51 11 -45 35 3 12 0 15 -15 11 -38 -10 -48 -41 -48 -149 l0 -103 -35
0 -35 0 0 125 c0 77 -4 125 -10 125 -5 0 -10 5 -10 10 0 16 36 11 61 -9z m890
0 c23 -18 24 -18 50 1 20 15 35 18 58 13 50 -11 61 -37 61 -147 0 -53 4 -99 9
-102 9 -6 35 20 44 44 4 11 6 10 6 -4 2 -49 -72 -75 -111 -39 -15 13 -18 32
-18 113 0 75 -4 100 -15 110 -13 10 -19 10 -35 -5 -18 -16 -20 -31 -20 -127
l0 -108 -40 0 -40 0 0 125 c0 77 -4 125 -10 125 -5 0 -10 5 -10 10 0 17 46 11
71 -9z"/>
<path d="M1025 1179 c-66 -61 -134 -169 -169 -268 -27 -78 -30 -98 -30 -206 1
-90 6 -143 23 -213 13 -50 26 -92 31 -92 13 0 48 52 77 117 34 74 37 191 9
302 -17 63 -18 83 -8 145 14 88 37 145 86 209 20 26 34 47 31 47 -3 0 -26 -19
-50 -41z"/>
<path d="M1710 1300 l0 -170 28 0 c39 1 105 33 130 65 12 15 27 45 32 66 27
99 -57 209 -160 209 l-30 0 0 -170z"/>
<path d="M2277 1364 c-3 -3 -1 -18 4 -32 6 -15 9 -65 8 -112 -2 -81 -1 -85 20
-88 46 -7 61 23 61 119 0 66 -4 91 -16 103 -15 16 -65 22 -77 10z"/>
<path d="M2572 1358 c-8 -8 -12 -47 -12 -110 0 -88 2 -98 21 -108 11 -6 32 -9
47 -5 l27 5 -3 103 c-2 56 -5 108 -7 115 -6 15 -57 16 -73 0z"/>
<path d="M1996 858 c-9 -12 -16 -35 -16 -50 0 -27 2 -28 50 -28 l50 0 0 38 c0
21 -5 43 -12 50 -19 19 -55 14 -72 -10z"/>
<path d="M2461 861 c-6 -11 -11 -58 -11 -104 0 -89 13 -117 56 -117 41 0 45
12 42 126 l-3 109 -37 3 c-28 2 -39 -1 -47 -17z"/>
<path d="M2879 863 c-10 -11 -14 -44 -14 -105 0 -77 3 -92 19 -104 25 -18 41
-18 60 2 20 19 23 193 4 212 -17 17 -53 15 -69 -5z"/>
</g>
</svg>
